<svg width="14" height="14" viewBox="0 0 14 14" fill="none" xmlns="http://www.w3.org/2000/svg">
<path d="M8.56668 6.99934L13.3445 2.23267C13.5537 2.02345 13.6712 1.73967 13.6712 1.44378C13.6712 1.14789 13.5537 0.86412 13.3445 0.654894C13.1352 0.445667 12.8515 0.328125 12.5556 0.328125C12.2597 0.328125 11.9759 0.445667 11.7667 0.654894L7.00001 5.43267L2.23335 0.654894C2.02412 0.445667 1.74035 0.328125 1.44446 0.328125C1.14857 0.328125 0.864796 0.445667 0.655569 0.654894C0.446343 0.86412 0.328801 1.14789 0.328801 1.44378C0.328801 1.73967 0.446343 2.02345 0.655569 2.23267L5.43335 6.99934L0.655569 11.766C0.551426 11.8693 0.468766 11.9922 0.412357 12.1276C0.355947 12.263 0.326904 12.4082 0.326904 12.5549C0.326904 12.7016 0.355947 12.8468 0.412357 12.9822C0.468766 13.1176 0.551426 13.2405 0.655569 13.3438C0.758861 13.4479 0.881751 13.5306 1.01715 13.587C1.15255 13.6434 1.29778 13.6724 1.44446 13.6724C1.59114 13.6724 1.73637 13.6434 1.87177 13.587C2.00716 13.5306 2.13005 13.4479 2.23335 13.3438L7.00001 8.566L11.7667 13.3438C11.87 13.4479 11.9929 13.5306 12.1283 13.587C12.2637 13.6434 12.4089 13.6724 12.5556 13.6724C12.7023 13.6724 12.8475 13.6434 12.9829 13.587C13.1183 13.5306 13.2412 13.4479 13.3445 13.3438C13.4486 13.2405 13.5313 13.1176 13.5877 12.9822C13.6441 12.8468 13.6731 12.7016 13.6731 12.5549C13.6731 12.4082 13.6441 12.263 13.5877 12.1276C13.5313 11.9922 13.4486 11.8693 13.3445 11.766L8.56668 6.99934Z" fill="#696969"/>
</svg>
