<svg width="12" height="12" viewBox="0 0 12 12" fill="none" xmlns="http://www.w3.org/2000/svg">
<path d="M11.028 3.02799C11.596 2.45995 11.596 1.53898 11.028 0.970948C10.4599 0.402913 9.53898 0.402913 8.97095 0.970948L5.99947 3.94243L3.02799 0.970948C2.45995 0.402913 1.53898 0.402913 0.970948 0.970948C0.402913 1.53898 0.402913 2.45995 0.970948 3.02799L3.94243 5.99947L0.970948 8.97095C0.402913 9.53898 0.402913 10.46 0.970948 11.028C1.53898 11.596 2.45995 11.596 3.02799 11.028L5.99947 8.0565L8.97095 11.028C9.53898 11.596 10.4599 11.596 11.028 11.028C11.596 10.46 11.596 9.53898 11.028 8.97095L8.0565 5.99947L11.028 3.02799Z" fill="#B4B4B4"/>
</svg>
