<svg width="8" height="8" viewBox="0 0 8 8" fill="none" xmlns="http://www.w3.org/2000/svg">
<path fill-rule="evenodd" clip-rule="evenodd" d="M7.45735 1.95735C7.84788 1.56683 7.84788 0.933662 7.45735 0.543137C7.06683 0.152613 6.43366 0.152613 6.04314 0.543137L4.00024 2.58603L1.95735 0.543137C1.56683 0.152613 0.933662 0.152613 0.543137 0.543137C0.152613 0.933662 0.152613 1.56683 0.543137 1.95735L2.58603 4.00024L0.543137 6.04314C0.152613 6.43366 0.152613 7.06683 0.543137 7.45735C0.933662 7.84788 1.56683 7.84788 1.95735 7.45735L4.00024 5.41446L6.04314 7.45735C6.43366 7.84788 7.06683 7.84788 7.45735 7.45735C7.84788 7.06683 7.84788 6.43366 7.45735 6.04314L5.41446 4.00024L7.45735 1.95735Z" fill="#B4B4B4"/>
</svg>
