<svg width="20" height="16" viewBox="0 0 20 16" fill="none" xmlns="http://www.w3.org/2000/svg">
<path d="M10.0009 12.2181C7.6306 12.2181 5.71185 10.4981 5.53528 8.31839L2.25716 5.94329C1.82622 6.45013 1.42966 6.98597 1.10966 7.5719C1.03817 7.70447 1.00093 7.85094 1.00093 7.99949C1.00093 8.14804 1.03817 8.29451 1.10966 8.42708C2.80435 11.527 6.15935 13.6243 10.0009 13.6243C10.8418 13.6243 11.6531 13.5072 12.435 13.3179L10.8134 12.1416C10.5456 12.1901 10.2737 12.2157 10.0009 12.2181ZM19.8078 13.9202L16.3531 11.4171C17.4025 10.588 18.2656 9.5715 18.8922 8.42679C18.9636 8.29422 19.0009 8.14775 19.0009 7.9992C19.0009 7.85065 18.9636 7.70418 18.8922 7.57161C17.1975 4.47171 13.8425 2.37434 10.0009 2.37434C8.392 2.37617 6.80923 2.7559 5.39716 3.47884L1.42153 0.598075C1.36969 0.560255 1.31041 0.532383 1.24707 0.516051C1.18373 0.499719 1.11758 0.495248 1.0524 0.502894C0.98722 0.510539 0.924284 0.530151 0.867191 0.560608C0.810097 0.591065 0.759965 0.631771 0.719659 0.680399L0.106221 1.42073C0.024846 1.51887 -0.0116178 1.64329 0.00484972 1.76664C0.0213173 1.88998 0.0893676 2.00214 0.194034 2.07845L18.5803 15.4006C18.6321 15.4384 18.6914 15.4663 18.7547 15.4826C18.8181 15.499 18.8842 15.5034 18.9494 15.4958C19.0146 15.4882 19.0775 15.4685 19.1346 15.4381C19.1917 15.4076 19.2419 15.3669 19.2822 15.3183L19.8959 14.578C19.9772 14.4798 20.0137 14.3553 19.9971 14.232C19.9806 14.1086 19.9125 13.9965 19.8078 13.9202ZM14.0665 9.76009L12.8384 8.87005C12.9418 8.58981 12.9967 8.29585 13.0009 7.99934C13.007 7.56524 12.9044 7.13585 12.7014 6.74566C12.4984 6.35546 12.2006 6.01535 11.8319 5.75263C11.4632 5.48991 11.034 5.31192 10.5786 5.23294C10.1233 5.15396 9.65449 5.1762 9.20997 5.29788C9.39841 5.53726 9.50035 5.82683 9.50091 6.12434C9.49625 6.22335 9.48011 6.32158 9.45278 6.41731L7.15247 4.75061C7.95153 4.1246 8.95957 3.78132 10.0009 3.78059C10.5919 3.78029 11.1773 3.8892 11.7234 4.1011C12.2695 4.313 12.7657 4.62374 13.1836 5.01555C13.6016 5.40736 13.933 5.87255 14.159 6.38453C14.3851 6.89652 14.5012 7.44524 14.5009 7.99934C14.5009 8.63304 14.3356 9.22366 14.0665 9.76038V9.76009Z" fill="white" fill-opacity="0.4"/>
</svg>
