<svg width="20" height="20" viewBox="0 0 20 20" fill="none" xmlns="http://www.w3.org/2000/svg">
<path d="M10.0025 5.07775C7.27834 5.07775 5.08099 7.27559 5.08099 10.0004C5.08099 12.7252 7.27834 14.923 10.0025 14.923C12.7267 14.923 14.9241 12.7252 14.9241 10.0004C14.9241 7.27559 12.7267 5.07775 10.0025 5.07775ZM10.0025 13.2007C8.24209 13.2007 6.80289 11.7655 6.80289 10.0004C6.80289 8.23527 8.2378 6.80003 10.0025 6.80003C11.7673 6.80003 13.2022 8.23527 13.2022 10.0004C13.2022 11.7655 11.763 13.2007 10.0025 13.2007ZM16.2733 4.87639C16.2733 5.51475 15.7593 6.02458 15.1254 6.02458C14.4872 6.02458 13.9775 5.51047 13.9775 4.87639C13.9775 4.24232 14.4915 3.7282 15.1254 3.7282C15.7593 3.7282 16.2733 4.24232 16.2733 4.87639ZM19.5329 6.04172C19.4601 4.50366 19.1089 3.14126 17.9824 2.01878C16.8601 0.896296 15.498 0.544985 13.9603 0.467868C12.3755 0.377898 7.62529 0.377898 6.04046 0.467868C4.50703 0.540701 3.14493 0.892012 2.01842 2.01449C0.891902 3.13697 0.544953 4.49938 0.467853 6.03743C0.377903 7.62262 0.377903 12.3739 0.467853 13.9591C0.540669 15.4971 0.891902 16.8595 2.01842 17.982C3.14493 19.1045 4.50274 19.4558 6.04046 19.5329C7.62529 19.6229 12.3755 19.6229 13.9603 19.5329C15.498 19.4601 16.8601 19.1088 17.9824 17.982C19.1046 16.8595 19.4558 15.4971 19.5329 13.9591C19.6229 12.3739 19.6229 7.6269 19.5329 6.04172ZM17.4855 15.6599C17.1514 16.4996 16.5046 17.1466 15.6608 17.485C14.3972 17.9863 11.3989 17.8706 10.0025 17.8706C8.60617 17.8706 5.60356 17.982 4.34426 17.485C3.50473 17.1509 2.85795 16.5039 2.51957 15.6599C2.01842 14.3961 2.13407 11.3971 2.13407 10.0004C2.13407 8.60371 2.0227 5.60044 2.51957 4.34086C2.85366 3.50114 3.50045 2.85421 4.34426 2.51575C5.60784 2.01449 8.60617 2.13017 10.0025 2.13017C11.3989 2.13017 14.4015 2.01878 15.6608 2.51575C16.5003 2.84993 17.1471 3.49685 17.4855 4.34086C17.9866 5.60472 17.871 8.60371 17.871 10.0004C17.871 11.3971 17.9866 14.4003 17.4855 15.6599Z" fill="#696969"/>
</svg>
