<svg width="22" height="18" viewBox="0 0 22 18" fill="none" xmlns="http://www.w3.org/2000/svg">
<path d="M19.579 4.78647C19.5927 4.97021 19.5927 5.15399 19.5927 5.33773C19.5927 10.9421 15.1384 17.3996 6.99721 17.3996C4.48907 17.3996 2.15913 16.704 0.199219 15.4965C0.555578 15.5359 0.898184 15.549 1.26825 15.549C3.33777 15.549 5.24288 14.8796 6.76421 13.7378C4.81801 13.6984 3.18703 12.4777 2.62509 10.7977C2.89923 10.8371 3.17332 10.8633 3.46117 10.8633C3.85862 10.8633 4.25611 10.8108 4.62614 10.719C2.59771 10.3252 1.07634 8.61898 1.07634 6.55835V6.50587C1.66566 6.82087 2.351 7.01775 3.07735 7.04397C1.88495 6.2827 1.10376 4.98334 1.10376 3.51333C1.10376 2.72584 1.32301 2.00397 1.70679 1.37396C3.886 3.94646 7.16166 5.62644 10.8347 5.81022C10.7662 5.49521 10.7251 5.16712 10.7251 4.83899C10.7251 2.50271 12.6987 0.599609 15.152 0.599609C16.4266 0.599609 17.5779 1.11148 18.3865 1.93836C19.387 1.75462 20.3464 1.40023 21.1962 0.914612C20.8672 1.89901 20.1682 2.72588 19.25 3.25085C20.1409 3.15902 21.0043 2.92272 21.7992 2.59462C21.1963 3.43459 20.4424 4.18268 19.579 4.78647Z" fill="white"/>
</svg>
