<svg width="20" height="22" viewBox="0 0 20 22" fill="none" xmlns="http://www.w3.org/2000/svg">
<path d="M13.7105 11.7096C14.6909 10.9383 15.4065 9.88056 15.7577 8.68358C16.109 7.4866 16.0784 6.2099 15.6703 5.0311C15.2621 3.85231 14.4967 2.83003 13.4806 2.10649C12.4644 1.38296 11.2479 0.994141 10.0005 0.994141C8.75303 0.994141 7.5366 1.38296 6.52041 2.10649C5.50423 2.83003 4.73883 3.85231 4.3307 5.0311C3.92257 6.2099 3.892 7.4866 4.24325 8.68358C4.59449 9.88056 5.31009 10.9383 6.29048 11.7096C4.61056 12.3827 3.14477 13.499 2.04938 14.9396C0.953983 16.3801 0.270048 18.0909 0.070485 19.8896C0.0560396 20.021 0.0676015 20.1538 0.10451 20.2807C0.141419 20.4075 0.202952 20.5259 0.285596 20.629C0.452504 20.8371 0.695269 20.9705 0.960485 20.9996C1.2257 21.0288 1.49164 20.9514 1.69981 20.7845C1.90798 20.6176 2.04131 20.3749 2.07049 20.1096C2.29007 18.1548 3.22217 16.3494 4.6887 15.0384C6.15524 13.7274 8.05338 13.0027 10.0205 13.0027C11.9876 13.0027 13.8857 13.7274 15.3523 15.0384C16.8188 16.3494 17.7509 18.1548 17.9705 20.1096C17.9977 20.3554 18.1149 20.5823 18.2996 20.7467C18.4843 20.911 18.7233 21.0011 18.9705 20.9996H19.0805C19.3426 20.9695 19.5822 20.8369 19.747 20.6309C19.9119 20.4248 19.9886 20.162 19.9605 19.8996C19.76 18.0958 19.0724 16.3806 17.9713 14.9378C16.8703 13.4951 15.3974 12.3791 13.7105 11.7096ZM10.0005 10.9996C9.20936 10.9996 8.436 10.765 7.7782 10.3255C7.12041 9.88599 6.60772 9.26128 6.30497 8.53037C6.00222 7.79947 5.923 6.9952 6.07734 6.21928C6.23168 5.44335 6.61265 4.73062 7.17206 4.17121C7.73147 3.6118 8.4442 3.23084 9.22012 3.0765C9.99605 2.92215 10.8003 3.00137 11.5312 3.30412C12.2621 3.60687 12.8868 4.11956 13.3264 4.77736C13.7659 5.43515 14.0005 6.20851 14.0005 6.99964C14.0005 8.0605 13.5791 9.07792 12.8289 9.82806C12.0788 10.5782 11.0614 10.9996 10.0005 10.9996Z" fill="white"/>
</svg>
