<svg width="16" height="18" viewBox="0 0 16 18" fill="none" xmlns="http://www.w3.org/2000/svg">
<path d="M6.33333 13.9993C6.55435 13.9993 6.76631 13.9116 6.92259 13.7553C7.07887 13.599 7.16667 13.387 7.16667 13.166V8.16602C7.16667 7.945 7.07887 7.73304 6.92259 7.57676C6.76631 7.42048 6.55435 7.33268 6.33333 7.33268C6.11232 7.33268 5.90036 7.42048 5.74408 7.57676C5.5878 7.73304 5.5 7.945 5.5 8.16602V13.166C5.5 13.387 5.5878 13.599 5.74408 13.7553C5.90036 13.9116 6.11232 13.9993 6.33333 13.9993ZM14.6667 3.99935H11.3333V3.16602C11.3333 2.50297 11.0699 1.86709 10.6011 1.39825C10.1323 0.929408 9.49637 0.666016 8.83333 0.666016H7.16667C6.50363 0.666016 5.86774 0.929408 5.3989 1.39825C4.93006 1.86709 4.66667 2.50297 4.66667 3.16602V3.99935H1.33333C1.11232 3.99935 0.900358 4.08715 0.744078 4.24343C0.587797 4.39971 0.5 4.61167 0.5 4.83268C0.5 5.0537 0.587797 5.26566 0.744078 5.42194C0.900358 5.57822 1.11232 5.66602 1.33333 5.66602H2.16667V14.8327C2.16667 15.4957 2.43006 16.1316 2.8989 16.6005C3.36774 17.0693 4.00363 17.3327 4.66667 17.3327H11.3333C11.9964 17.3327 12.6323 17.0693 13.1011 16.6005C13.5699 16.1316 13.8333 15.4957 13.8333 14.8327V5.66602H14.6667C14.8877 5.66602 15.0996 5.57822 15.2559 5.42194C15.4122 5.26566 15.5 5.0537 15.5 4.83268C15.5 4.61167 15.4122 4.39971 15.2559 4.24343C15.0996 4.08715 14.8877 3.99935 14.6667 3.99935ZM6.33333 3.16602C6.33333 2.945 6.42113 2.73304 6.57741 2.57676C6.73369 2.42048 6.94565 2.33268 7.16667 2.33268H8.83333C9.05435 2.33268 9.26631 2.42048 9.42259 2.57676C9.57887 2.73304 9.66667 2.945 9.66667 3.16602V3.99935H6.33333V3.16602ZM12.1667 14.8327C12.1667 15.0537 12.0789 15.2657 11.9226 15.4219C11.7663 15.5782 11.5543 15.666 11.3333 15.666H4.66667C4.44565 15.666 4.23369 15.5782 4.07741 15.4219C3.92113 15.2657 3.83333 15.0537 3.83333 14.8327V5.66602H12.1667V14.8327ZM9.66667 13.9993C9.88768 13.9993 10.0996 13.9116 10.2559 13.7553C10.4122 13.599 10.5 13.387 10.5 13.166V8.16602C10.5 7.945 10.4122 7.73304 10.2559 7.57676C10.0996 7.42048 9.88768 7.33268 9.66667 7.33268C9.44565 7.33268 9.23369 7.42048 9.07741 7.57676C8.92113 7.73304 8.83333 7.945 8.83333 8.16602V13.166C8.83333 13.387 8.92113 13.599 9.07741 13.7553C9.23369 13.9116 9.44565 13.9993 9.66667 13.9993Z" fill="#B4B4B4"/>
</svg>
