<svg width="20" height="14" viewBox="0 0 20 14" fill="none" xmlns="http://www.w3.org/2000/svg">
<path d="M19.8791 6.50817C17.9962 2.93858 14.2684 0.523438 9.99998 0.523438C5.73158 0.523438 2.00276 2.94027 0.120814 6.5085C0.0413844 6.66116 0 6.82982 0 7.00088C0 7.17193 0.0413844 7.34059 0.120814 7.49325C2.0038 11.0628 5.73158 13.478 9.99998 13.478C14.2684 13.478 17.9972 11.0611 19.8791 7.49291C19.9586 7.34026 20 7.1716 20 7.00054C20 6.82949 19.9586 6.66082 19.8791 6.50817ZM9.99998 11.8587C9.01107 11.8587 8.04437 11.5738 7.22213 11.04C6.39988 10.5062 5.75902 9.74744 5.38058 8.85977C5.00214 7.97209 4.90313 6.99532 5.09605 6.05297C5.28898 5.11062 5.76518 4.24501 6.46445 3.56562C7.16371 2.88622 8.05462 2.42355 9.02453 2.2361C9.99443 2.04865 10.9998 2.14486 11.9134 2.51255C12.827 2.88023 13.6079 3.50289 14.1573 4.30177C14.7067 5.10066 15 6.0399 15 7.00071C15.0003 7.63875 14.8712 8.2706 14.62 8.86014C14.3689 9.44967 14.0006 9.98533 13.5362 10.4365C13.0719 10.8877 12.5205 11.2455 11.9138 11.4895C11.307 11.7335 10.6567 11.859 9.99998 11.8587ZM9.99998 3.76207C9.70246 3.76611 9.40685 3.80912 9.12116 3.88993C9.35665 4.20087 9.46966 4.5835 9.43969 4.96845C9.40972 5.35339 9.23875 5.71516 8.95779 5.98813C8.67684 6.26111 8.30449 6.42721 7.90829 6.45634C7.51209 6.48546 7.11827 6.37566 6.79824 6.14686C6.61601 6.79917 6.64891 7.49058 6.8923 8.12377C7.1357 8.75697 7.57733 9.30007 8.15505 9.67662C8.73277 10.0532 9.41749 10.2442 10.1128 10.2229C10.8081 10.2015 11.4791 9.96888 12.0312 9.55765C12.5833 9.14642 12.9888 8.57732 13.1905 7.93046C13.3923 7.28361 13.3802 6.59156 13.156 5.95172C12.9317 5.31188 12.5066 4.75648 11.9405 4.36369C11.3743 3.97089 10.6957 3.76048 9.99998 3.76207Z" fill="#696969"/>
</svg>
