<svg width="14" height="14" viewBox="0 0 14 14" fill="none" xmlns="http://www.w3.org/2000/svg">
<path d="M9.44962 6.99989L13.1235 3.21118C13.5744 2.74625 13.5744 1.99245 13.1235 1.52714L12.307 0.685122C11.8562 0.220194 11.1252 0.220194 10.674 0.685122L7.00011 4.47383L3.32621 0.685122C2.87538 0.220194 2.14441 0.220194 1.69321 0.685122L0.876704 1.52714C0.425864 1.99207 0.425864 2.74587 0.876704 3.21118L4.5506 6.99989L0.876704 10.7886C0.425864 11.2535 0.425864 12.0073 0.876704 12.4726L1.69321 13.3147C2.14405 13.7796 2.87538 13.7796 3.32621 13.3147L7.00011 9.52594L10.674 13.3147C11.1249 13.7796 11.8562 13.7796 12.307 13.3147L13.1235 12.4726C13.5744 12.0077 13.5744 11.2539 13.1235 10.7886L9.44962 6.99989Z" fill="#FF5E5E" fill-opacity="0.4"/>
</svg>
