<svg width="18" height="16" viewBox="0 0 18 16" fill="none" xmlns="http://www.w3.org/2000/svg">
<path d="M17.3332 6.0587C17.2806 5.90627 17.1849 5.77239 17.0577 5.67328C16.9305 5.57418 16.7772 5.51411 16.6166 5.50037L11.8749 4.8087L9.7499 0.500365C9.68166 0.359473 9.57512 0.24065 9.44247 0.15751C9.30983 0.0743692 9.15645 0.0302734 8.9999 0.0302734C8.84335 0.0302734 8.68997 0.0743692 8.55733 0.15751C8.42468 0.24065 8.31814 0.359473 8.2499 0.500365L6.1249 4.80036L1.38323 5.50037C1.229 5.52229 1.084 5.587 0.964692 5.68716C0.84538 5.78733 0.756533 5.91893 0.708233 6.06703C0.664021 6.21176 0.660053 6.3658 0.696756 6.51261C0.733459 6.65942 0.809448 6.79347 0.916567 6.90037L4.35823 10.2337L3.5249 14.967C3.49515 15.1233 3.51073 15.2847 3.56979 15.4324C3.62886 15.5801 3.72895 15.7078 3.85823 15.8004C3.98425 15.8905 4.13288 15.9436 4.28744 15.9539C4.442 15.9642 4.59638 15.9313 4.73323 15.8587L8.9999 13.6337L13.2499 15.867C13.3669 15.933 13.499 15.9675 13.6332 15.967C13.8098 15.9677 13.9819 15.9122 14.1249 15.8087C14.2542 15.7161 14.3543 15.5884 14.4133 15.4407C14.4724 15.2931 14.488 15.1316 14.4582 14.9754L13.6249 10.242L17.0666 6.9087C17.1869 6.80676 17.2758 6.67278 17.323 6.52232C17.3702 6.37186 17.3738 6.21109 17.3332 6.0587Z" fill="#DA71FF"/>
</svg>
