<svg width="24" height="24" viewBox="0 0 24 24" fill="none" xmlns="http://www.w3.org/2000/svg">
<path d="M13.3459 24C14.2002 23.77 14.9755 23.3053 15.5869 22.6568C17.0963 21.0158 17.0495 18.3934 16.6655 17.1252C16.4852 16.5845 16.2523 16.0635 15.9702 15.5699L15.8769 15.4118C13.4034 11.2219 12.0269 8.83009 11.7854 8.30296C11.7109 8.09484 11.6774 7.87384 11.6869 7.65257C11.6965 7.4313 11.7488 7.2141 11.841 7.0134C12.0162 6.60822 12.3369 6.28624 12.7377 6.11313C12.9748 6.01837 13.2277 5.97124 13.4825 5.97429C14.5337 5.97429 15.6745 6.67671 16.0289 7.17968C16.4475 7.77427 16.7571 8.4932 16.9073 10.0686C16.9122 10.1413 16.9447 10.2093 16.998 10.2581C17.0513 10.307 17.1211 10.3329 17.1928 10.3304C17.2645 10.3329 17.3344 10.3071 17.3877 10.2582C17.441 10.2094 17.4736 10.1413 17.4785 10.0686C17.5146 9.69847 17.5407 9.4597 17.5599 9.28541C17.5886 9.06371 17.6056 8.84056 17.6107 8.61701C17.6461 7.0377 17.4395 5.86205 16.2781 4.5261C15.6315 3.78269 14.4166 3.26355 13.3236 3.26355C12.8247 3.25374 12.3318 3.37686 11.8941 3.62054C10.7341 4.28947 10.0238 5.13384 9.78335 6.13057C9.6567 6.67329 9.66338 7.23929 9.80279 7.77877C9.894 8.16043 10.0441 8.52505 10.2476 8.85896L10.2738 8.90033C11.4114 10.6989 12.395 12.2515 14.5488 16.3914C14.7804 16.8841 14.8975 17.4243 14.8911 17.9703C14.8991 18.5906 14.7928 19.207 14.5777 19.7877C14.4331 20.182 14.2195 20.5465 13.9473 20.8636C13.68 21.1739 13.3398 21.4105 12.9584 21.5514C12.7618 20.0568 12.0373 18.6858 10.9198 17.6937C9.80233 16.7017 8.3681 16.1563 6.88431 16.1592C6.53624 16.1593 6.18881 16.1896 5.84577 16.2495C4.29804 16.5173 2.79935 17.0225 1.40102 17.748C0.948948 16.8898 0.601177 15.979 0.365353 15.0356C0.122288 14.0597 -0.000429091 13.0568 2.31583e-05 12.0502C-0.00311368 10.4393 0.312449 8.84419 0.927965 7.35968C1.52006 5.92871 2.37946 4.62797 3.45865 3.52936C4.53322 2.42937 5.80802 1.55223 7.21206 0.94674C8.66544 0.318923 10.2289 -0.00315155 11.8082 2.32445e-05C13.3874 -0.00302083 14.9509 0.319193 16.4043 0.947169C17.8082 1.55267 19.083 2.42982 20.1575 3.52979C21.2366 4.62842 22.096 5.92916 22.6881 7.36011C23.3036 8.84462 23.6191 10.4398 23.616 12.0507C23.6183 13.5354 23.3505 15.0077 22.826 16.3935C22.3208 17.7288 21.585 18.9617 20.6533 20.0341C18.7705 22.2117 16.1739 23.6209 13.3459 24Z" fill="#E6E6E6"/>
</svg>
