<svg width="20" height="18" viewBox="0 0 20 18" fill="none" xmlns="http://www.w3.org/2000/svg">
<path d="M10.0908 0.25C5.06952 0.25 0.999915 3.88672 0.999915 8.375C0.999915 10.2344 1.70659 11.9375 2.87847 13.3086C2.34935 14.8477 1.24849 16.1523 1.23074 16.168C0.996364 16.4414 0.932444 16.8398 1.06739 17.1836C1.20233 17.5273 1.51128 17.75 1.85219 17.75C4.03614 17.75 5.75844 16.7461 6.79182 15.9414C7.8181 16.2969 8.92605 16.5 10.0908 16.5C15.1121 16.5 19.1817 12.8633 19.1817 8.375C19.1817 3.88672 15.1121 0.25 10.0908 0.25ZM10.0908 14.625C9.14267 14.625 8.20517 14.4648 7.30673 14.1523L6.50063 13.8711L5.80815 14.4102C5.30034 14.8047 4.60432 15.2461 3.76625 15.543C4.02548 15.0703 4.27761 14.5391 4.47293 13.9727L4.84935 12.875L4.11781 12.0234C3.47506 11.2695 2.70446 10.0234 2.70446 8.375C2.70446 4.92969 6.01767 2.125 10.0908 2.125C14.164 2.125 17.4772 4.92969 17.4772 8.375C17.4772 11.8203 14.164 14.625 10.0908 14.625Z" fill="white" fill-opacity="0.7"/>
</svg>
