<svg width="18" height="18" viewBox="0 0 18 18" fill="none" xmlns="http://www.w3.org/2000/svg">
<path d="M10.8799 8.9996L16.6133 3.2796C16.8643 3.02852 17.0054 2.688 17.0054 2.33293C17.0054 1.97786 16.8643 1.63733 16.6133 1.38626C16.3622 1.13519 16.0217 0.994141 15.6666 0.994141C15.3115 0.994141 14.971 1.13519 14.7199 1.38626L8.99992 7.1196L3.27992 1.38626C3.02885 1.13519 2.68832 0.994141 2.33325 0.994141C1.97818 0.994141 1.63766 1.13519 1.38659 1.38626C1.13551 1.63733 0.994463 1.97786 0.994463 2.33293C0.994463 2.688 1.13551 3.02852 1.38659 3.2796L7.11992 8.9996L1.38659 14.7196C1.26161 14.8435 1.16242 14.991 1.09473 15.1535C1.02704 15.316 0.992188 15.4902 0.992188 15.6663C0.992188 15.8423 1.02704 16.0166 1.09473 16.179C1.16242 16.3415 1.26161 16.489 1.38659 16.6129C1.51054 16.7379 1.658 16.8371 1.82048 16.9048C1.98296 16.9725 2.15724 17.0073 2.33325 17.0073C2.50927 17.0073 2.68354 16.9725 2.84602 16.9048C3.0085 16.8371 3.15597 16.7379 3.27992 16.6129L8.99992 10.8796L14.7199 16.6129C14.8439 16.7379 14.9913 16.8371 15.1538 16.9048C15.3163 16.9725 15.4906 17.0073 15.6666 17.0073C15.8426 17.0073 16.0169 16.9725 16.1794 16.9048C16.3418 16.8371 16.4893 16.7379 16.6133 16.6129C16.7382 16.489 16.8374 16.3415 16.9051 16.179C16.9728 16.0166 17.0077 15.8423 17.0077 15.6663C17.0077 15.4902 16.9728 15.316 16.9051 15.1535C16.8374 14.991 16.7382 14.8435 16.6133 14.7196L10.8799 8.9996Z" fill="#696969"/>
</svg>
