<svg width="10" height="11" viewBox="0 0 10 11" fill="none" xmlns="http://www.w3.org/2000/svg">
<path d="M6.85764 5.5001L9.64368 2.71406C9.98557 2.37217 9.98557 1.81786 9.64368 1.47569L9.0245 0.856512C8.68261 0.514626 8.1283 0.514626 7.78614 0.856512L5.0001 3.64255L2.21406 0.856512C1.87217 0.514626 1.31786 0.514626 0.975694 0.856512L0.356512 1.47569C0.0146261 1.81758 0.0146261 2.37189 0.356512 2.71406L3.14255 5.5001L0.356512 8.28614C0.0146261 8.62802 0.0146261 9.18234 0.356512 9.5245L0.975694 10.1437C1.31758 10.4856 1.87217 10.4856 2.21406 10.1437L5.0001 7.35764L7.78614 10.1437C8.12802 10.4856 8.68261 10.4856 9.0245 10.1437L9.64368 9.5245C9.98557 9.18261 9.98557 8.6283 9.64368 8.28614L6.85764 5.5001Z" fill="#EC3838"/>
</svg>
