<svg width="17" height="20" viewBox="0 0 17 20" fill="none" xmlns="http://www.w3.org/2000/svg">
<path d="M15.8788 14.152C15.1806 13.341 13.8742 12.1211 13.8742 8.125C13.8742 5.08984 11.9053 2.66016 9.2505 2.06406V1.25C9.2505 0.559766 8.73298 0 8.09476 0C7.45654 0 6.93902 0.559766 6.93902 1.25V2.06406C4.28422 2.66016 2.31535 5.08984 2.31535 8.125C2.31535 12.1211 1.00891 13.341 0.310697 14.152C0.0938605 14.4039 -0.00227027 14.7051 -0.000463295 15C0.00351204 15.6406 0.468626 16.25 1.15961 16.25H15.0299C15.7209 16.25 16.1864 15.6406 16.19 15C16.1918 14.7051 16.0957 14.4035 15.8788 14.152ZM2.44003 14.375C3.20691 13.2824 4.04534 11.4715 4.04932 8.14766C4.04932 8.13984 4.04715 8.13281 4.04715 8.125C4.04715 5.70859 5.85918 3.75 8.09476 3.75C10.3303 3.75 12.1424 5.70859 12.1424 8.125C12.1424 8.13281 12.1402 8.13984 12.1402 8.14766C12.1442 11.4719 12.9826 13.2828 13.7495 14.375H2.44003ZM8.09476 20C9.37121 20 10.4066 18.8809 10.4066 17.5H5.78293C5.78293 18.8809 6.81832 20 8.09476 20Z" fill="white" fill-opacity="0.7"/>
</svg>
