<svg width="20" height="14" viewBox="0 0 20 14" fill="none" xmlns="http://www.w3.org/2000/svg">
<path d="M19.8791 6.50743C17.9962 2.93785 14.2684 0.522705 9.99998 0.522705C5.73158 0.522705 2.00276 2.93954 0.120814 6.50777C0.0413844 6.66043 0 6.82909 0 7.00015C0 7.1712 0.0413844 7.33986 0.120814 7.49252C2.0038 11.0621 5.73158 13.4772 9.99998 13.4772C14.2684 13.4772 17.9972 11.0604 19.8791 7.49218C19.9586 7.33952 20 7.17086 20 6.99981C20 6.82875 19.9586 6.66009 19.8791 6.50743ZM9.99998 11.8579C9.01107 11.8579 8.04437 11.573 7.22213 11.0392C6.39988 10.5054 5.75902 9.74671 5.38058 8.85904C5.00214 7.97136 4.90313 6.99459 5.09605 6.05224C5.28898 5.10989 5.76518 4.24428 6.46445 3.56488C7.16371 2.88549 8.05462 2.42281 9.02453 2.23537C9.99443 2.04792 10.9998 2.14413 11.9134 2.51181C12.827 2.8795 13.6079 3.50216 14.1573 4.30104C14.7067 5.09993 15 6.03917 15 6.99998C15.0003 7.63802 14.8712 8.26987 14.62 8.8594C14.3689 9.44894 14.0006 9.9846 13.5362 10.4358C13.0719 10.8869 12.5205 11.2447 11.9138 11.4888C11.307 11.7328 10.6567 11.8582 9.99998 11.8579ZM9.99998 3.76134C9.70246 3.76538 9.40685 3.80839 9.12116 3.8892C9.35665 4.20013 9.46966 4.58277 9.43969 4.96771C9.40972 5.35266 9.23875 5.71442 8.95779 5.9874C8.67684 6.26037 8.30449 6.42648 7.90829 6.4556C7.51209 6.48472 7.11827 6.37493 6.79824 6.14612C6.61601 6.79844 6.64891 7.48985 6.8923 8.12304C7.1357 8.75624 7.57733 9.29933 8.15505 9.67589C8.73277 10.0524 9.41749 10.2435 10.1128 10.2221C10.8081 10.2008 11.4791 9.96815 12.0312 9.55692C12.5833 9.14569 12.9888 8.57659 13.1905 7.92973C13.3923 7.28287 13.3802 6.59082 13.156 5.95099C12.9317 5.31115 12.5066 4.75575 11.9405 4.36295C11.3743 3.97016 10.6957 3.75975 9.99998 3.76134Z" fill="white" fill-opacity="0.4"/>
</svg>
