<svg width="18" height="18" viewBox="0 0 18 18" fill="none" xmlns="http://www.w3.org/2000/svg">
<path d="M5.81663 2.33308L1.49996 2.33308C1.27894 2.33308 1.06698 2.42088 0.910703 2.57716C0.754423 2.73344 0.666625 2.9454 0.666625 3.16641C0.666625 3.38743 0.754423 3.59939 0.910703 3.75567C1.06698 3.91195 1.27894 3.99975 1.49996 3.99975L5.81663 3.99975C5.9918 4.48237 6.31132 4.89936 6.73176 5.19404C7.15221 5.48873 7.65319 5.64681 8.16663 5.64681C8.68006 5.64681 9.18104 5.48873 9.60149 5.19404C10.0219 4.89936 10.3415 4.48237 10.5166 3.99974L16.5 3.99974C16.721 3.99974 16.9329 3.91195 17.0892 3.75567C17.2455 3.59939 17.3333 3.38742 17.3333 3.16641C17.3333 2.9454 17.2455 2.73343 17.0892 2.57716C16.9329 2.42087 16.721 2.33308 16.5 2.33308L10.5166 2.33308C10.3415 1.85045 10.0219 1.43346 9.60149 1.13878C9.18104 0.844097 8.68006 0.686014 8.16663 0.686014C7.65319 0.686014 7.15221 0.844097 6.73176 1.13878C6.31132 1.43346 5.9918 1.85045 5.81663 2.33308ZM8.99996 3.16641C8.99996 3.33123 8.95108 3.49235 8.85952 3.62939C8.76795 3.76643 8.6378 3.87324 8.48553 3.93631C8.33326 3.99938 8.1657 4.01589 8.00405 3.98373C7.8424 3.95158 7.69391 3.87221 7.57737 3.75567C7.46083 3.63912 7.38146 3.49064 7.3493 3.32899C7.31715 3.16734 7.33365 2.99978 7.39673 2.84751C7.4598 2.69524 7.56661 2.56509 7.70365 2.47352C7.84069 2.38195 8.00181 2.33308 8.16663 2.33308C8.38764 2.33308 8.5996 2.42088 8.75588 2.57716C8.91216 2.73344 8.99996 2.9454 8.99996 3.16641ZM10.8166 8.16641L1.49996 8.16641C1.27895 8.16641 1.06698 8.25421 0.910703 8.41049C0.754423 8.56677 0.666626 8.77873 0.666626 8.99975C0.666626 9.22076 0.754423 9.43272 0.910703 9.589C1.06698 9.74528 1.27895 9.83308 1.49996 9.83308L10.8166 9.83308C10.9918 10.3157 11.3113 10.7327 11.7318 11.0274C12.1522 11.3221 12.6532 11.4801 13.1666 11.4801C13.6801 11.4801 14.181 11.3221 14.6015 11.0274C15.0219 10.7327 15.3415 10.3157 15.5166 9.83308L16.5 9.83308C16.721 9.83308 16.9329 9.74528 17.0892 9.589C17.2455 9.43272 17.3333 9.22076 17.3333 8.99974C17.3333 8.77873 17.2455 8.56677 17.0892 8.41049C16.9329 8.25421 16.721 8.16641 16.5 8.16641L15.5166 8.16641C15.3415 7.68378 15.0219 7.2668 14.6015 6.97211C14.181 6.67743 13.6801 6.51935 13.1666 6.51935C12.6532 6.51935 12.1522 6.67743 11.7318 6.97211C11.3113 7.2668 10.9918 7.68378 10.8166 8.16641ZM14 8.99974C14 9.16456 13.9511 9.32568 13.8595 9.46272C13.768 9.59976 13.6378 9.70657 13.4855 9.76964C13.3333 9.83272 13.1657 9.84922 13.004 9.81707C12.8424 9.78491 12.6939 9.70554 12.5774 9.589C12.4608 9.47246 12.3815 9.32397 12.3493 9.16232C12.3172 9.00067 12.3337 8.83311 12.3967 8.68084C12.4598 8.52857 12.5666 8.39842 12.7037 8.30685C12.8407 8.21529 13.0018 8.16641 13.1666 8.16641C13.3876 8.16641 13.5996 8.25421 13.7559 8.41049C13.9122 8.56677 14 8.77873 14 8.99974ZM4.14996 13.9997L1.49996 13.9997C1.27895 13.9997 1.06698 14.0875 0.910703 14.2438C0.754423 14.4001 0.666626 14.6121 0.666626 14.8331C0.666626 15.0541 0.754423 15.2661 0.910704 15.4223C1.06698 15.5786 1.27895 15.6664 1.49996 15.6664L4.14996 15.6664C4.32513 16.149 4.64465 16.566 5.0651 16.8607C5.48554 17.1554 5.98653 17.3135 6.49996 17.3135C7.01339 17.3135 7.51438 17.1554 7.93482 16.8607C8.35527 16.566 8.67479 16.149 8.84996 15.6664L16.5 15.6664C16.721 15.6664 16.9329 15.5786 17.0892 15.4223C17.2455 15.2661 17.3333 15.0541 17.3333 14.8331C17.3333 14.6121 17.2455 14.4001 17.0892 14.2438C16.9329 14.0875 16.721 13.9997 16.5 13.9997L8.84996 13.9997C8.67479 13.5171 8.35527 13.1001 7.93482 12.8054C7.51437 12.5108 7.01339 12.3527 6.49996 12.3527C5.98653 12.3527 5.48554 12.5108 5.0651 12.8054C4.64465 13.1001 4.32513 13.5171 4.14996 13.9997ZM7.33329 14.8331C7.33329 14.9979 7.28442 15.159 7.19285 15.2961C7.10128 15.4331 6.97113 15.5399 6.81886 15.603C6.66659 15.6661 6.49904 15.6826 6.33738 15.6504C6.17573 15.6182 6.02725 15.5389 5.9107 15.4223C5.79416 15.3058 5.71479 15.1573 5.68264 14.9957C5.65048 14.834 5.66699 14.6664 5.73006 14.5142C5.79313 14.3619 5.89994 14.2318 6.03698 14.1402C6.17402 14.0486 6.33514 13.9997 6.49996 13.9997C6.72097 13.9997 6.93293 14.0875 7.08922 14.2438C7.2455 14.4001 7.33329 14.6121 7.33329 14.8331Z" fill="black"/>
</svg>
