<svg width="22" height="20" viewBox="0 0 22 20" fill="none" xmlns="http://www.w3.org/2000/svg">
<path d="M19.5 4.43977V3.25977C19.5 2.46412 19.1839 1.70105 18.6213 1.13845C18.0587 0.575836 17.2956 0.259766 16.5 0.259766C15.7044 0.259766 14.9413 0.575836 14.3787 1.13845C13.8161 1.70105 13.5 2.46412 13.5 3.25977V4.43977C12.9165 4.64608 12.411 5.02784 12.0529 5.5327C11.6949 6.03757 11.5017 6.64082 11.5 7.25977V9.25977C11.5 10.0554 11.8161 10.8185 12.3787 11.3811C12.9413 11.9437 13.7044 12.2598 14.5 12.2598H18.5C19.2956 12.2598 20.0587 11.9437 20.6213 11.3811C21.1839 10.8185 21.5 10.0554 21.5 9.25977V7.25977C21.4983 6.64082 21.3051 6.03757 20.9471 5.5327C20.589 5.02784 20.0835 4.64608 19.5 4.43977ZM15.5 3.25977C15.5 2.99455 15.6054 2.7402 15.7929 2.55266C15.9804 2.36512 16.2348 2.25977 16.5 2.25977C16.7652 2.25977 17.0196 2.36512 17.2071 2.55266C17.3946 2.7402 17.5 2.99455 17.5 3.25977V4.25977H15.5V3.25977ZM19.5 9.25977C19.5 9.52498 19.3946 9.77934 19.2071 9.96687C19.0196 10.1544 18.7652 10.2598 18.5 10.2598H14.5C14.2348 10.2598 13.9804 10.1544 13.7929 9.96687C13.6054 9.77934 13.5 9.52498 13.5 9.25977V7.25977C13.5 6.99455 13.6054 6.7402 13.7929 6.55266C13.9804 6.36512 14.2348 6.25977 14.5 6.25977H18.5C18.7652 6.25977 19.0196 6.36512 19.2071 6.55266C19.3946 6.7402 19.5 6.99455 19.5 7.25977V9.25977ZM19.5 14.2598C19.2348 14.2598 18.9804 14.3651 18.7929 14.5527C18.6054 14.7402 18.5 14.9945 18.5 15.2598V16.2598C18.5 16.525 18.3946 16.7793 18.2071 16.9669C18.0196 17.1544 17.7652 17.2598 17.5 17.2598H3.5C3.23478 17.2598 2.98043 17.1544 2.79289 16.9669C2.60536 16.7793 2.5 16.525 2.5 16.2598V6.66977L8.38 12.5498C8.47258 12.643 8.58262 12.7171 8.70384 12.7678C8.82505 12.8185 8.95507 12.8449 9.08646 12.8453C9.21786 12.8458 9.34806 12.8204 9.46963 12.7705C9.5912 12.7207 9.70176 12.6473 9.795 12.5548C9.88824 12.4622 9.96233 12.3521 10.013 12.2309C10.0638 12.1097 10.0901 11.9797 10.0906 11.8483C10.091 11.7169 10.0656 11.5867 10.0157 11.4651C9.96589 11.3436 9.89258 11.233 9.8 11.1398L3.91 5.25977H9.5C9.76522 5.25977 10.0196 5.15441 10.2071 4.96687C10.3946 4.77934 10.5 4.52498 10.5 4.25977C10.5 3.99455 10.3946 3.7402 10.2071 3.55266C10.0196 3.36512 9.76522 3.25977 9.5 3.25977H3.5C2.70435 3.25977 1.94129 3.57584 1.37868 4.13845C0.816071 4.70105 0.5 5.46412 0.5 6.25977V16.2598C0.5 17.0554 0.816071 17.8185 1.37868 18.3811C1.94129 18.9437 2.70435 19.2598 3.5 19.2598H17.5C18.2956 19.2598 19.0587 18.9437 19.6213 18.3811C20.1839 17.8185 20.5 17.0554 20.5 16.2598V15.2598C20.5 14.9945 20.3946 14.7402 20.2071 14.5527C20.0196 14.3651 19.7652 14.2598 19.5 14.2598Z" fill="white"/>
</svg>
