<svg width="24" height="14" viewBox="0 0 24 14" fill="none" xmlns="http://www.w3.org/2000/svg">
<path d="M23.1368 1.03542C23.2972 0.496359 23.1368 0.0996094 22.3655 0.0996094H19.8132C19.1632 0.0996094 18.8642 0.440297 18.7038 0.819797C18.7038 0.819797 17.4038 3.97223 15.5665 6.01636C14.9728 6.60717 14.6998 6.79692 14.3748 6.79692C14.2145 6.79692 13.9675 6.60717 13.9675 6.06811V1.03542C13.9675 0.388547 13.7855 0.0996094 13.2482 0.0996094H9.23551C8.82817 0.0996094 8.58551 0.401484 8.58551 0.681797C8.58551 1.29417 9.50417 1.43648 9.59951 3.16148V6.90474C9.59951 7.72411 9.45217 7.87505 9.12717 7.87505C8.26051 7.87505 6.15451 4.70967 4.90651 1.08717C4.65517 0.384234 4.40817 0.0996094 3.75384 0.0996094H1.20151C0.473505 0.0996094 0.326172 0.440297 0.326172 0.819797C0.326172 1.49255 1.19284 4.83474 4.36051 9.25074C6.47084 12.2652 9.44351 13.8996 12.1475 13.8996C13.7725 13.8996 13.9718 13.5374 13.9718 12.912C13.9718 10.0313 13.8245 9.75961 14.6392 9.75961C15.0162 9.75961 15.6662 9.94936 17.1828 11.4027C18.9162 13.1277 19.2022 13.8996 20.1728 13.8996H22.7252C23.4532 13.8996 23.8215 13.5374 23.6092 12.8215C23.1238 11.3164 19.8435 8.22005 19.6962 8.01305C19.3192 7.53005 19.4275 7.31442 19.6962 6.88317C19.7005 6.87886 22.8162 2.51461 23.1368 1.03542Z" fill="white"/>
</svg>
