<svg width="18" height="18" viewBox="0 0 18 18" fill="none" xmlns="http://www.w3.org/2000/svg">
<path d="M8.99984 0.666992C4.39984 0.666992 0.666504 4.40033 0.666504 9.00033C0.666504 13.6003 4.39984 17.3337 8.99984 17.3337C13.5998 17.3337 17.3332 13.6003 17.3332 9.00033C17.3332 4.40033 13.5998 0.666992 8.99984 0.666992ZM9.83317 14.8337H8.1665V13.167H9.83317V14.8337ZM11.5582 8.37533L10.8082 9.14199C10.2082 9.75033 9.83317 10.2503 9.83317 11.5003H8.1665V11.0837C8.1665 10.167 8.5415 9.33366 9.1415 8.72533L10.1748 7.67533C10.4832 7.37533 10.6665 6.95866 10.6665 6.50033C10.6665 5.58366 9.9165 4.83366 8.99984 4.83366C8.08317 4.83366 7.33317 5.58366 7.33317 6.50033H5.6665C5.6665 4.65866 7.15817 3.16699 8.99984 3.16699C10.8415 3.16699 12.3332 4.65866 12.3332 6.50033C12.3332 7.23366 12.0332 7.90033 11.5582 8.37533Z" fill="#B4B4B4"/>
</svg>
