<svg width="202" height="32" viewBox="0 0 202 32" fill="none" xmlns="http://www.w3.org/2000/svg">
<path d="M31.1988 13.5988C30.7745 13.5988 30.3675 13.7674 30.0675 14.0675C29.7674 14.3675 29.5988 14.7745 29.5988 15.1988V26.3988C29.5988 26.8232 29.4303 27.2301 29.1302 27.5302C28.8301 27.8303 28.4232 27.9988 27.9988 27.9988H5.59883C5.17448 27.9988 4.76752 27.8303 4.46746 27.5302C4.1674 27.2301 3.99883 26.8232 3.99883 26.3988V13.5988C3.99883 13.1745 4.1674 12.7675 4.46746 12.4675C4.76752 12.1674 5.17448 11.9988 5.59883 11.9988H8.79883C9.14773 12.017 9.49301 11.9205 9.78192 11.7241C10.0708 11.5276 10.2875 11.242 10.3988 10.9108L11.2628 8.28683C11.3702 7.96903 11.5747 7.69301 11.8474 7.49778C12.1202 7.30254 12.4474 7.19796 12.7828 7.19883H21.5988C22.0232 7.19883 22.4301 7.03026 22.7302 6.7302C23.0303 6.43014 23.1988 6.02317 23.1988 5.59883C23.1988 5.17448 23.0303 4.76752 22.7302 4.46746C22.4301 4.1674 22.0232 3.99883 21.5988 3.99883H12.7028C11.6973 4.00071 10.7178 4.31832 9.90246 4.90684C9.08715 5.49535 8.47724 6.32505 8.15883 7.27883L7.64683 8.87883H5.59883C4.32579 8.87883 3.10489 9.38454 2.20472 10.2847C1.30454 11.1849 0.798828 12.4058 0.798828 13.6788V26.4788C0.798828 27.7519 1.30454 28.9728 2.20472 29.8729C3.10489 30.7731 4.32579 31.2788 5.59883 31.2788H27.9988C29.2719 31.2788 30.4928 30.7731 31.3929 29.8729C32.2931 28.9728 32.7988 27.7519 32.7988 26.4788V15.2788C32.8097 15.0621 32.7763 14.8454 32.7008 14.6419C32.6253 14.4385 32.5091 14.2525 32.3595 14.0954C32.2098 13.9382 32.0297 13.8132 31.8302 13.7278C31.6307 13.6424 31.4159 13.5986 31.1988 13.5988ZM16.7988 11.9988C15.533 11.9988 14.2957 12.3742 13.2432 13.0774C12.1907 13.7807 11.3704 14.7802 10.886 15.9497C10.4016 17.1191 10.2749 18.4059 10.5218 19.6474C10.7687 20.8889 11.3783 22.0293 12.2733 22.9243C13.1684 23.8194 14.3088 24.4289 15.5503 24.6759C16.7917 24.9228 18.0786 24.7961 19.248 24.3117C20.4175 23.8273 21.417 23.007 22.1202 21.9545C22.8235 20.902 23.1988 19.6646 23.1988 18.3988C23.1988 16.7014 22.5245 15.0736 21.3243 13.8733C20.1241 12.6731 18.4962 11.9988 16.7988 11.9988ZM16.7988 21.5988C16.1659 21.5988 15.5472 21.4112 15.021 21.0595C14.4948 20.7079 14.0846 20.2081 13.8424 19.6234C13.6002 19.0387 13.5368 18.3953 13.6603 17.7745C13.7838 17.1538 14.0886 16.5836 14.5361 16.1361C14.9836 15.6886 15.5538 15.3838 16.1745 15.2603C16.7953 15.1368 17.4387 15.2002 18.0234 15.4424C18.6081 15.6846 19.1079 16.0948 19.4595 16.621C19.8112 17.1472 19.9988 17.7659 19.9988 18.3988C19.9988 19.2475 19.6617 20.0615 19.0616 20.6616C18.4615 21.2617 17.6475 21.5988 16.7988 21.5988ZM34.3988 3.99883H32.7988V2.39883C32.7988 1.97448 32.6303 1.56752 32.3302 1.26746C32.0301 0.967399 31.6232 0.798828 31.1988 0.798828C30.7745 0.798828 30.3675 0.967399 30.0675 1.26746C29.7674 1.56752 29.5988 1.97448 29.5988 2.39883V3.99883H27.9988C27.5745 3.99883 27.1675 4.1674 26.8675 4.46746C26.5674 4.76752 26.3988 5.17448 26.3988 5.59883C26.3988 6.02317 26.5674 6.43014 26.8675 6.7302C27.1675 7.03026 27.5745 7.19883 27.9988 7.19883H29.5988V8.79883C29.5988 9.22318 29.7674 9.63014 30.0675 9.9302C30.3675 10.2303 30.7745 10.3988 31.1988 10.3988C31.6232 10.3988 32.0301 10.2303 32.3302 9.9302C32.6303 9.63014 32.7988 9.22318 32.7988 8.79883V7.19883H34.3988C34.8232 7.19883 35.2301 7.03026 35.5302 6.7302C35.8303 6.43014 35.9988 6.02317 35.9988 5.59883C35.9988 5.17448 35.8303 4.76752 35.5302 4.46746C35.2301 4.1674 34.8232 3.99883 34.3988 3.99883Z" fill="#B4B4B4"/>
<path d="M56.1313 24.1748C58.8688 24.1748 60.8625 22.6061 60.8563 20.4436C60.8625 18.8436 59.8625 17.6936 58.0688 17.4373V17.3373C59.4563 17.0373 60.3875 16.0061 60.3813 14.5686C60.3875 12.6186 58.725 11.0248 56.1688 11.0248C53.6813 11.0248 51.7563 12.5061 51.7062 14.6498H53.9375C53.975 13.5748 54.975 12.9061 56.1562 12.9061C57.35 12.9061 58.1437 13.6311 58.1375 14.7061C58.1437 15.8248 57.2188 16.5686 55.8937 16.5686H54.7625V18.3561H55.8937C57.5125 18.3561 58.475 19.1686 58.4688 20.3248C58.475 21.4561 57.4938 22.2311 56.125 22.2311C54.8375 22.2311 53.8438 21.5623 53.7875 20.5186H51.4375C51.5 22.6811 53.4313 24.1748 56.1313 24.1748Z" fill="#B4B4B4"/>
<path d="M65.4723 24.1936C66.9785 24.1936 67.8785 23.4873 68.291 22.6811H68.366V23.9998H70.541V17.5748C70.541 15.0373 68.4723 14.2748 66.641 14.2748C64.6223 14.2748 63.0723 15.1748 62.5723 16.9248L64.6848 17.2248C64.9098 16.5686 65.5473 16.0061 66.6535 16.0061C67.7035 16.0061 68.2785 16.5436 68.2785 17.4873V17.5248C68.2785 18.1748 67.5973 18.2061 65.9035 18.3873C64.041 18.5873 62.2598 19.1436 62.2598 21.3061C62.2598 23.1936 63.641 24.1936 65.4723 24.1936ZM66.0598 22.5311C65.116 22.5311 64.441 22.0998 64.441 21.2686C64.441 20.3998 65.1973 20.0373 66.2098 19.8936C66.8035 19.8123 67.991 19.6623 68.2848 19.4248V20.5561C68.2848 21.6248 67.4223 22.5311 66.0598 22.5311Z" fill="#B4B4B4"/>
<path d="M78.8492 14.3998H72.4992V23.9998H74.7117V16.2561H78.8492V14.3998Z" fill="#B4B4B4"/>
<path d="M80.3465 27.5998H82.609V22.4873H82.7027C83.059 23.1873 83.8027 24.1686 85.4527 24.1686C87.7152 24.1686 89.409 22.3748 89.409 19.2123C89.409 16.0123 87.6652 14.2748 85.4465 14.2748C83.7527 14.2748 83.0465 15.2936 82.7027 15.9873H82.5715V14.3998H80.3465V27.5998ZM82.5652 19.1998C82.5652 17.3373 83.3652 16.1311 84.8215 16.1311C86.3277 16.1311 87.1027 17.4123 87.1027 19.1998C87.1027 20.9998 86.3152 22.3123 84.8215 22.3123C83.3777 22.3123 82.5652 21.0623 82.5652 19.1998Z" fill="#B4B4B4"/>
<path d="M92.1094 27.5998C93.8719 27.5998 94.8906 26.6936 95.4344 25.1623L99.2906 14.4123L96.8719 14.3998L94.6531 21.6498H94.5531L92.3406 14.3998H89.9406L93.4219 24.1998L93.2281 24.7186C92.8094 25.8123 92.1469 25.8873 91.1594 25.5998L90.6344 27.3623C90.9406 27.4873 91.4906 27.5998 92.1094 27.5998Z" fill="#B4B4B4"/>
<path d="M100.013 21.3686C100.069 23.1498 101.7 24.1873 103.919 24.1873C106.194 24.1873 107.838 23.1061 107.838 21.3373C107.838 20.0436 106.957 19.1561 105.819 19.0873V18.9873C106.919 18.6936 107.619 18.0061 107.619 16.9686C107.619 15.3498 106.219 14.2748 103.969 14.2748C101.869 14.2748 100.288 15.3623 100.257 17.0373H102.488C102.513 16.3936 103.175 15.9436 104.075 15.9436C104.975 15.9436 105.519 16.4248 105.519 17.1373C105.519 17.7936 105.019 18.2811 104.082 18.2811H102.613V19.8873H104.082C105.025 19.8873 105.644 20.4186 105.644 21.1936C105.644 22.0686 104.875 22.4936 103.907 22.4936C102.95 22.4936 102.3 22.0811 102.257 21.3686H100.013Z" fill="#B4B4B4"/>
<path d="M111.484 20.9373V14.3998H109.302V23.9998H111.634L115.465 17.4561V23.9998H117.652V14.3998H115.327L111.484 20.9373Z" fill="#B4B4B4"/>
<path d="M118.584 16.2561H121.69V23.9998H123.878V16.2561H126.984V14.3998H118.584V16.2561Z" fill="#B4B4B4"/>
<path d="M130.65 17.5248V14.3998H128.469V23.9998H132.831C135.275 23.9998 136.681 22.6498 136.687 20.7623C136.681 18.8248 135.275 17.5248 132.831 17.5248H130.65ZM130.65 19.3811H132.831C133.812 19.3811 134.519 19.9623 134.519 20.7936C134.519 21.5873 133.812 22.1436 132.831 22.1436H130.65V19.3811Z" fill="#B4B4B4"/>
<path d="M150.052 10.8498C149.59 11.1998 148.859 11.1936 147.865 11.1936C147.584 11.1936 147.29 11.1936 146.971 11.1998C143.665 11.2436 141.965 13.4436 141.965 17.9561V18.8186C141.965 22.3311 143.74 24.1873 146.534 24.1873C149.327 24.1873 151.09 22.3248 151.09 19.3623C151.09 16.4873 149.415 14.8311 147.034 14.8311C145.571 14.8311 144.465 15.4623 143.865 16.6373H143.759C143.984 14.2436 144.884 13.1623 147.034 13.1123C148.94 13.0686 150.009 13.0373 150.84 12.3123L150.052 10.8498ZM146.546 22.3748C145.127 22.3748 144.259 21.2373 144.259 19.4248C144.277 17.6373 145.134 16.6123 146.534 16.6123C147.934 16.6123 148.796 17.6373 148.796 19.4248C148.796 21.2436 147.94 22.3748 146.546 22.3748Z" fill="#B4B4B4"/>
<path d="M155.461 24.1936C156.967 24.1936 157.867 23.4873 158.279 22.6811H158.354V23.9998H160.529V17.5748C160.529 15.0373 158.461 14.2748 156.629 14.2748C154.611 14.2748 153.061 15.1748 152.561 16.9248L154.673 17.2248C154.898 16.5686 155.536 16.0061 156.642 16.0061C157.692 16.0061 158.267 16.5436 158.267 17.4873V17.5248C158.267 18.1748 157.586 18.2061 155.892 18.3873C154.029 18.5873 152.248 19.1436 152.248 21.3061C152.248 23.1936 153.629 24.1936 155.461 24.1936ZM156.048 22.5311C155.104 22.5311 154.429 22.0998 154.429 21.2686C154.429 20.3998 155.186 20.0373 156.198 19.8936C156.792 19.8123 157.979 19.6623 158.273 19.4248V20.5561C158.273 21.6248 157.411 22.5311 156.048 22.5311Z" fill="#B4B4B4"/>
<path d="M164.669 14.3998H162.487V23.9998H164.669V20.1186H168.387V23.9998H170.562V14.3998H168.387V18.2623H164.669V14.3998Z" fill="#B4B4B4"/>
<path d="M174.716 14.3998H172.535V23.9998H174.716V20.1186H178.435V23.9998H180.61V14.3998H178.435V18.2623H174.716V14.3998Z" fill="#B4B4B4"/>
<path d="M186.832 24.1873C189.069 24.1873 190.607 23.0936 191.007 21.4248L188.894 21.1873C188.588 21.9998 187.838 22.4248 186.863 22.4248C185.401 22.4248 184.432 21.4623 184.413 19.8186H191.101V19.1248C191.101 15.7561 189.076 14.2748 186.713 14.2748C183.963 14.2748 182.169 16.2936 182.169 19.2561C182.169 22.2686 183.938 24.1873 186.832 24.1873ZM184.419 18.2936C184.488 17.0686 185.394 16.0373 186.744 16.0373C188.044 16.0373 188.919 16.9873 188.932 18.2936H184.419Z" fill="#B4B4B4"/>
<path d="M192.698 27.5998H194.96V22.4873H195.054C195.411 23.1873 196.154 24.1686 197.804 24.1686C200.067 24.1686 201.76 22.3748 201.76 19.2123C201.76 16.0123 200.017 14.2748 197.798 14.2748C196.104 14.2748 195.398 15.2936 195.054 15.9873H194.923V14.3998H192.698V27.5998ZM194.917 19.1998C194.917 17.3373 195.717 16.1311 197.173 16.1311C198.679 16.1311 199.454 17.4123 199.454 19.1998C199.454 20.9998 198.667 22.3123 197.173 22.3123C195.729 22.3123 194.917 21.0623 194.917 19.1998Z" fill="#B4B4B4"/>
</svg>
