<svg width="20" height="12" viewBox="0 0 20 12" fill="none" xmlns="http://www.w3.org/2000/svg">
<path d="M19.2804 1.02984C19.414 0.580625 19.2804 0.25 18.6376 0.25H16.5107C15.969 0.25 15.7198 0.533906 15.5862 0.850156C15.5862 0.850156 14.5029 3.47719 12.9718 5.18062C12.477 5.67297 12.2495 5.83109 11.9787 5.83109C11.8451 5.83109 11.6393 5.67297 11.6393 5.22375V1.02984C11.6393 0.490781 11.4876 0.25 11.0398 0.25H7.69593C7.35648 0.25 7.15426 0.501563 7.15426 0.735156C7.15426 1.24547 7.91982 1.36406 7.99926 2.80156V5.92094C7.99926 6.60375 7.87648 6.72953 7.60565 6.72953C6.88343 6.72953 5.12843 4.09172 4.08843 1.07297C3.87898 0.487188 3.67315 0.25 3.12787 0.25H1.00093C0.394262 0.25 0.271484 0.533906 0.271484 0.850156C0.271484 1.41078 0.993707 4.19594 3.63343 7.87594C5.39204 10.388 7.86926 11.75 10.1226 11.75C11.4768 11.75 11.6429 11.4481 11.6429 10.927C11.6429 8.52641 11.5201 8.3 12.199 8.3C12.5132 8.3 13.0548 8.45813 14.3187 9.66922C15.7632 11.1067 16.0015 11.75 16.8104 11.75H18.9373C19.544 11.75 19.8509 11.4481 19.674 10.8516C19.2695 9.59734 16.5359 7.01703 16.4132 6.84453C16.099 6.44203 16.1893 6.26234 16.4132 5.90297C16.4168 5.89937 19.0132 2.2625 19.2804 1.02984Z" fill="#696969"/>
</svg>
